<svg xmlns="http://www.w3.org/2000/svg" xmlns:xlink="http://www.w3.org/1999/xlink" viewBox="0 0 340.84 241.33"><defs><style>.cls-1{fill:url(#linear-gradient);}.cls-2{fill:url(#linear-gradient-2);}.cls-3{fill:url(#linear-gradient-3);}.cls-4{fill:url(#linear-gradient-4);}.cls-5{fill:url(#linear-gradient-5);}</style><linearGradient id="linear-gradient" x1="262.34" y1="-30.38" x2="262.34" y2="175.33" gradientUnits="userSpaceOnUse"><stop offset="0" stop-color="#2f89fc"/><stop offset="1" stop-color="#30e3ca"/></linearGradient><linearGradient id="linear-gradient-2" x1="264.63" y1="175.08" x2="264.63" y2="198.58" xlink:href="#linear-gradient"/><linearGradient id="linear-gradient-3" x1="264.63" y1="200.77" x2="264.63" y2="218.8" xlink:href="#linear-gradient"/><linearGradient id="linear-gradient-4" x1="264.63" y1="220.44" x2="264.63" y2="242.3" xlink:href="#linear-gradient"/><linearGradient id="linear-gradient-5" x1="82.16" y1="26.79" x2="82.16" y2="192.82" xlink:href="#linear-gradient"/></defs><g id="Layer_1" data-name="Layer 1"><polygon class="cls-1" points="340.84 70.64 295.41 70.64 295.41 167.84 229.27 167.76 229.27 70.64 183.85 70.64 262.34 0 340.84 70.64"/><path class="cls-2" d="M297.7,182.55l-66.14-.07h0c-4.38,0-8,3.15-8,7.07s3.59,6.94,8,6.94H297.7c4.39,0,8-3.08,8-6.94S302.09,182.55,297.7,182.55Z" transform="translate(-2.29)"/><path class="cls-3" d="M297.7,204.34l-66.14-.14h0c-4.38,0-8,3.22-8,7.07s3.59,6.94,8,6.94H297.7c4.39,0,8-3.08,8-6.94S302.09,204.34,297.7,204.34Z" transform="translate(-2.29)"/><path class="cls-4" d="M297.7,226.06l-66.14-.14h0c-4.38,0-8,3.29-8,7.14s3.59,6.94,8,6.94l66.14-.07h0c4.39,0,8-3.08,8-6.94S302.09,226.06,297.7,226.06Z" transform="translate(-2.29)"/></g><g id="Layer_2" data-name="Layer 2"><path class="cls-5" d="M13.51,39.66V235.45c0,3.92-1.82,5.88-5.44,5.88-3.86,0-5.78-2-5.78-5.88V34.13A6.05,6.05,0,0,1,3.82,30a5.38,5.38,0,0,1,4.25-1.73H75.71a106.67,106.67,0,0,1,22.6,2.25A44.43,44.43,0,0,1,116,38.28,36.81,36.81,0,0,1,127.37,53q4.08,9.17,4.08,23,0,48.78-53.7,48.78H67.21A5.52,5.52,0,0,1,63.13,123a5.68,5.68,0,0,1-1.7-4.15,5.15,5.15,0,0,1,1.7-4,5.81,5.81,0,0,1,4.08-1.56H77.75q19.69,0,31.1-8T120.23,76q0-11.06-3.23-18.16a26.38,26.38,0,0,0-9-11.07,36.66,36.66,0,0,0-14.11-5.53,98.86,98.86,0,0,0-18.18-1.56ZM107,216.08a4.82,4.82,0,0,1,.85,4.15,6.44,6.44,0,0,1-2.21,3.8,5.46,5.46,0,0,1-3.4,1,5,5,0,0,1-4.42-2.77L31.86,122.68q-3.06-4.84,1.7-8a4.08,4.08,0,0,1,3.06-1,6.85,6.85,0,0,1,4.76,2.42ZM38,169.72c3.62,0,5.44,1.85,5.44,5.54v60.19c0,3.92-1.82,5.88-5.44,5.88a5.81,5.81,0,0,1-4.08-1.56,5.53,5.53,0,0,1-1.7-4.32V175.26a5.15,5.15,0,0,1,1.7-4A5.81,5.81,0,0,1,38,169.72Zm58.46-19.37,55.06,82c2,3.24,1.58,5.88-1.36,8a4.94,4.94,0,0,1-3.06,1,5.47,5.47,0,0,1-4.75-2.42L81.82,148.28q-2-2.42-.34-5.88a5.49,5.49,0,0,1,5.1-3.12,73.4,73.4,0,0,0,26.17-4.49,58.42,58.42,0,0,0,20.4-12.8,56.3,56.3,0,0,0,13.08-20.06,72.81,72.81,0,0,0,4.59-26.64q0-33.21-16.31-47.91T86.58,12.68H38.32c-3.63,0-5.44-1.95-5.44-5.88,0-3.68,1.81-5.53,5.44-5.53H86.58q36,0,55.75,17.81T162,75.29q0,31.83-17.51,51.37T96.44,150.35Zm18.35,78.87a5.28,5.28,0,0,1,3.74,2.94,7.54,7.54,0,0,1,.34,5h-.34c-.68,2.76-2.6,4.15-5.78,4.15q-3.73-1-5.09-3.29a5.66,5.66,0,0,1-.68-4.67V233c1.13-2.77,3.06-4.15,5.77-4.15A4.67,4.67,0,0,1,114.79,229.22Z" transform="translate(-2.29)"/></g></svg>